<svg width="1134" height="1134" viewBox="0 0 1134 1134" fill="none" xmlns="http://www.w3.org/2000/svg">
<g clip-path="url(#clip0_3_73)">
<path d="M1138.26 1138.26H-4.40387V-4.40378H1138.26V1138.26Z" fill="#575756"/>
<mask id="mask0_3_73" style="mask-type:luminance" maskUnits="userSpaceOnUse" x="-76" y="-76" width="1286" height="1286">
<path d="M-75.5905 -75.5906H1209.45V1209.45H-75.5905V-75.5906Z" fill="white"/>
</mask>
<g mask="url(#mask0_3_73)">
<path d="M208.757 308.447C211.993 308.166 214.364 305.242 214.364 301.995V284.347C214.364 243.098 247.803 209.66 289.051 209.66H854.216C895.465 209.66 928.904 243.099 928.904 284.347V496.98C928.904 500.38 931.661 503.138 935.061 503.138C938.463 503.138 941.219 500.38 941.219 496.98V284.347C941.219 236.298 902.267 197.346 854.216 197.346H289.051C241.001 197.346 202.049 236.298 202.049 284.347V302.314C202.049 305.896 205.108 308.763 208.757 308.447Z" fill="#FFCC00"/>
</g>
<mask id="mask1_3_73" style="mask-type:luminance" maskUnits="userSpaceOnUse" x="-76" y="-76" width="1286" height="1286">
<path d="M-75.5906 -75.5906H1209.45V1209.45H-75.5906V-75.5906Z" fill="white"/>
</mask>
<g mask="url(#mask1_3_73)">
<path d="M928.904 774.592V849.575C928.904 890.789 895.494 924.2 854.28 924.2H288.987C247.774 924.2 214.364 890.789 214.364 849.576V558.645C214.364 555.429 212.013 552.559 208.811 552.253C205.139 551.904 202.05 554.781 202.05 558.381V849.575C202.05 897.591 240.974 936.515 288.988 936.515H854.28C902.295 936.515 941.219 897.591 941.219 849.575V774.592C941.219 771.192 938.462 768.435 935.062 768.435C931.662 768.435 928.904 771.192 928.904 774.592Z" fill="#FFCC00"/>
</g>
<mask id="mask2_3_73" style="mask-type:luminance" maskUnits="userSpaceOnUse" x="-76" y="-76" width="1286" height="1286">
<path d="M-75.5905 -75.5906H1209.45V1209.45H-75.5905V-75.5906Z" fill="white"/>
</mask>
<g mask="url(#mask2_3_73)">
<path d="M232.368 645.872C226.741 638.452 221.426 626.454 216.425 609.884L182.9 498.754C182.43 497.038 182.196 495.63 182.196 494.534C182.196 490.315 184.929 488.203 190.401 488.203C193.214 488.203 195.325 488.791 196.732 489.962C198.138 491.135 199.309 493.363 200.248 496.644L233.541 608.244C237.292 620.751 240.768 629.542 243.973 634.619C247.174 639.7 250.89 642.239 255.109 642.239C259.173 642.239 262.848 639.66 266.129 634.502C269.412 629.344 272.929 620.594 276.68 608.244L309.97 496.41C310.909 493.286 312.082 491.135 313.488 489.962C314.896 488.791 317.005 488.203 319.818 488.203C325.289 488.203 328.025 490.315 328.025 494.534C328.025 495.63 327.79 497.038 327.321 498.754L293.561 609.884C288.245 627.235 282.734 639.426 277.032 646.46C271.324 653.494 264.02 657.011 255.109 657.011C245.574 657.011 237.996 653.299 232.368 645.872Z" fill="#FFCC00"/>
</g>
<mask id="mask3_3_73" style="mask-type:luminance" maskUnits="userSpaceOnUse" x="-76" y="-76" width="1286" height="1286">
<path d="M-75.5905 -75.5906H1209.45V1209.45H-75.5905V-75.5906Z" fill="white"/>
</mask>
<g mask="url(#mask3_3_73)">
<path d="M465.059 633.799C474.983 628.329 482.798 620.398 488.505 610.001C494.209 599.61 497.062 587.143 497.062 572.606C497.062 557.917 494.131 545.334 488.27 534.859C482.41 524.39 474.437 516.497 464.358 511.179C454.275 505.869 443.059 503.209 430.713 503.209C418.206 503.209 406.993 505.946 397.069 511.414C387.141 516.889 379.367 524.859 373.741 535.329C368.115 545.803 365.299 558.229 365.299 572.606C365.299 587.143 368.15 599.61 373.858 610.001C379.562 620.398 387.375 628.329 397.303 633.799C407.227 639.271 418.521 642.005 431.181 642.005C443.842 642.005 455.131 639.271 465.059 633.799ZM388.511 646.575C375.85 639.623 365.887 629.737 358.619 616.918C351.35 604.105 347.717 589.333 347.717 572.606C347.717 555.727 351.35 540.919 358.619 528.179C365.887 515.439 375.85 505.594 388.511 498.638C401.171 491.685 415.393 488.203 431.181 488.203C446.966 488.203 461.191 491.685 473.851 498.638C486.511 505.594 496.477 515.439 503.743 528.179C511.013 540.919 514.647 555.727 514.647 572.606C514.647 589.333 511.013 604.105 503.743 616.918C496.477 629.737 486.511 639.623 473.851 646.575C461.191 653.533 446.966 657.01 431.181 657.01C415.393 657.01 401.171 653.533 388.511 646.575Z" fill="#FFCC00"/>
</g>
<mask id="mask4_3_73" style="mask-type:luminance" maskUnits="userSpaceOnUse" x="-76" y="-76" width="1286" height="1286">
<path d="M-75.5905 -75.5906H1209.45V1209.45H-75.5905V-75.5906Z" fill="white"/>
</mask>
<g mask="url(#mask4_3_73)">
<path d="M554.501 647.045C549.186 641.969 546.53 634.971 546.53 626.061V497.581C546.53 494.615 547.311 492.308 548.874 490.665C550.435 489.025 552.545 488.204 555.205 488.204C558.018 488.204 560.206 489.025 561.769 490.665C563.33 492.308 564.113 494.615 564.113 497.581V626.531C564.113 630.597 565.246 633.88 567.514 636.379C569.777 638.88 572.789 640.129 576.541 640.129H654.613C660.709 640.129 663.757 642.555 663.757 647.396C663.757 649.743 662.971 651.54 661.413 652.789C659.847 654.041 657.581 654.665 654.613 654.665H576.775C567.239 654.665 559.814 652.128 554.501 647.045Z" fill="#FFCC00"/>
</g>
<mask id="mask5_3_73" style="mask-type:luminance" maskUnits="userSpaceOnUse" x="-76" y="-76" width="1286" height="1286">
<path d="M-75.5906 -75.5906H1209.45V1209.45H-75.5906V-75.5906Z" fill="white"/>
</mask>
<g mask="url(#mask5_3_73)">
<path d="M711 654.548C709.512 652.906 708.772 650.602 708.772 647.631V505.084H655.082C652.27 505.084 650.042 504.499 648.402 503.326C646.759 502.155 645.939 500.396 645.939 498.051C645.939 493.051 648.987 490.55 655.082 490.55H780.28C786.376 490.55 789.424 493.051 789.424 498.051C789.424 500.243 788.639 501.96 787.08 503.21C785.515 504.462 783.247 505.084 780.28 505.084H726.59V647.631C726.59 650.602 725.77 652.906 724.13 654.548C722.487 656.188 720.26 657.011 717.447 657.011C714.634 657.011 712.483 656.188 711 654.548Z" fill="#FFCC00"/>
</g>
<mask id="mask6_3_73" style="mask-type:luminance" maskUnits="userSpaceOnUse" x="-76" y="-76" width="1286" height="1286">
<path d="M-75.5905 -75.5906H1209.45V1209.45H-75.5905V-75.5906Z" fill="white"/>
</mask>
<g mask="url(#mask6_3_73)">
<path d="M818.963 649.155C814.427 645.485 812.164 640.053 812.164 632.861C812.164 627.235 813.219 622.545 815.328 618.793C817.439 615.041 821.307 610.904 826.934 606.368L923.763 527.592C926.888 525.093 929.036 522.785 930.21 520.676C931.383 518.567 931.968 516.028 931.968 513.056C931.968 507.744 928.686 505.084 922.122 505.084H826.464C823.494 505.084 821.11 504.499 819.314 503.325C817.516 502.155 816.618 500.396 816.618 498.051C816.618 493.051 819.899 490.549 826.464 490.549H924.231C932.203 490.549 938.452 492.347 942.988 495.941C947.519 499.539 949.787 505.008 949.787 512.353C949.787 518.137 948.731 522.827 946.622 526.42C944.512 530.016 940.643 534.08 935.016 538.612L837.954 617.623C834.983 619.967 832.912 622.233 831.739 624.421C830.568 626.612 829.982 629.191 829.982 632.157C829.982 637.475 833.498 640.129 840.532 640.129H942.05C945.016 640.129 947.36 640.715 949.084 641.888C950.8 643.059 951.662 644.817 951.662 647.164C951.662 649.665 950.8 651.54 949.084 652.789C947.36 654.041 945.016 654.665 942.05 654.665H837.719C829.747 654.665 823.494 652.829 818.963 649.155Z" fill="#FFCC00"/>
</g>
<mask id="mask7_3_73" style="mask-type:luminance" maskUnits="userSpaceOnUse" x="-76" y="-76" width="1286" height="1286">
<path d="M-75.5905 -75.5906H1209.45V1209.45H-75.5905V-75.5906Z" fill="white"/>
</mask>
<g mask="url(#mask7_3_73)">
<path d="M556.852 736.607C554.348 735.314 552.419 733.478 551.064 731.096C549.709 728.716 549.032 725.946 549.032 722.784C549.032 719.664 549.709 716.926 551.064 714.564C552.419 712.204 554.348 710.378 556.852 709.084C559.355 707.791 562.249 707.144 565.533 707.144C568.613 707.144 571.28 707.575 573.539 708.438C575.796 709.3 577.58 710.572 578.896 712.255C579.224 712.707 579.388 713.138 579.388 713.548C579.388 714.163 579.079 714.718 578.464 715.211C578.177 715.456 577.807 715.58 577.355 715.58C576.657 715.58 576.001 715.272 575.385 714.656C573.209 712.235 569.925 711.024 565.533 711.024C561.716 711.024 558.771 712.039 556.699 714.071C554.625 716.103 553.589 719.008 553.589 722.784C553.589 726.52 554.635 729.434 556.729 731.527C558.823 733.62 561.757 734.667 565.533 734.667C567.628 734.667 569.556 734.35 571.321 733.714C573.085 733.078 574.544 732.164 575.693 730.974C576.391 730.275 577.048 729.927 577.664 729.927C578.033 729.927 578.443 730.091 578.896 730.419C579.469 730.912 579.757 731.446 579.757 732.02C579.757 732.554 579.531 733.006 579.079 733.375C577.068 735.182 574.975 736.495 572.799 737.315C570.624 738.136 568.201 738.547 565.533 738.547C562.249 738.547 559.355 737.9 556.852 736.607Z" fill="#FFCC00"/>
</g>
<mask id="mask8_3_73" style="mask-type:luminance" maskUnits="userSpaceOnUse" x="-76" y="-76" width="1286" height="1286">
<path d="M-75.5905 -75.5906H1209.45V1209.45H-75.5905V-75.5906Z" fill="white"/>
</mask>
<g mask="url(#mask8_3_73)">
<path d="M611.158 720.937C611.898 720.937 612.452 720.783 612.821 720.475C613.19 720.167 613.376 719.603 613.376 718.782C613.376 717.303 612.882 715.97 611.898 714.779C610.912 713.59 609.526 712.666 607.741 712.009C605.956 711.353 603.933 711.023 601.677 711.023C598.022 711.023 595.138 711.917 593.025 713.702C590.91 715.487 589.854 717.899 589.854 720.937H611.158ZM589.485 734.421C586.57 731.671 585.113 727.771 585.113 722.722C585.113 717.879 586.59 714.071 589.546 711.301C592.502 708.53 596.545 707.145 601.677 707.145C604.837 707.145 607.649 707.647 610.112 708.653C612.574 709.659 614.493 711.075 615.869 712.902C617.244 714.729 617.932 716.811 617.932 719.151C617.932 720.875 617.449 722.21 616.485 723.154C615.52 724.098 614.196 724.57 612.513 724.57H589.732C589.732 727.731 590.798 730.203 592.933 731.989C595.068 733.774 598.044 734.667 601.861 734.667C604.201 734.667 606.212 734.411 607.896 733.898C609.577 733.385 611.158 732.554 612.636 731.405C613.416 730.747 614.053 730.419 614.545 730.419C614.914 730.419 615.262 730.583 615.592 730.911C616.166 731.405 616.454 731.918 616.454 732.451C616.454 732.862 616.208 733.313 615.714 733.806C614.03 735.406 612.061 736.598 609.804 737.377C607.546 738.157 604.898 738.547 601.861 738.547C596.524 738.547 592.4 737.171 589.485 734.421Z" fill="#FFCC00"/>
</g>
<mask id="mask9_3_73" style="mask-type:luminance" maskUnits="userSpaceOnUse" x="-76" y="-76" width="1286" height="1286">
<path d="M-75.5905 -75.5906H1209.45V1209.45H-75.5905V-75.5906Z" fill="white"/>
</mask>
<g mask="url(#mask9_3_73)">
<path d="M625.536 737.9C625.145 737.469 624.951 736.864 624.951 736.084V709.608C624.951 708.828 625.135 708.221 625.505 707.79C625.875 707.36 626.428 707.144 627.168 707.144C627.864 707.144 628.408 707.36 628.799 707.79C629.188 708.221 629.384 708.828 629.384 709.608V713.24C630.901 711.229 632.739 709.71 634.895 708.684C637.051 707.658 639.42 707.144 642.007 707.144C645.905 707.144 648.912 708.233 651.027 710.408C653.14 712.584 654.197 715.702 654.197 719.766V736.084C654.197 736.864 653.992 737.469 653.581 737.9C653.172 738.33 652.617 738.546 651.92 738.546C651.18 738.546 650.625 738.33 650.257 737.9C649.888 737.469 649.703 736.864 649.703 736.084V719.766C649.703 713.938 646.952 711.024 641.453 711.024C637.84 711.024 634.935 712.092 632.739 714.225C630.544 716.36 629.445 719.192 629.445 722.722V736.084C629.445 736.822 629.249 737.418 628.86 737.869C628.469 738.32 627.905 738.546 627.168 738.546C626.468 738.546 625.925 738.33 625.536 737.9Z" fill="#FFCC00"/>
</g>
<mask id="mask10_3_73" style="mask-type:luminance" maskUnits="userSpaceOnUse" x="-76" y="-76" width="1286" height="1286">
<path d="M-75.5906 -75.5906H1209.45V1209.45H-75.5906V-75.5906Z" fill="white"/>
</mask>
<g mask="url(#mask10_3_73)">
<path d="M685.816 731.527C688.053 729.434 689.172 726.54 689.172 722.846C689.172 719.151 688.053 716.258 685.816 714.163C683.577 712.07 680.613 711.023 676.919 711.023C673.183 711.023 670.196 712.07 667.959 714.163C665.723 716.258 664.604 719.151 664.604 722.846C664.604 726.54 665.723 729.434 667.959 731.527C670.196 733.62 673.183 734.667 676.919 734.667C680.613 734.667 683.577 733.62 685.816 731.527ZM667.744 736.391C665.199 734.955 663.281 733.035 661.988 730.635C660.693 728.234 660.048 725.638 660.048 722.846C660.048 720.055 660.693 717.458 661.988 715.056C663.281 712.655 665.199 710.736 667.744 709.299C670.288 707.863 673.347 707.144 676.919 707.144C680.491 707.144 683.537 707.863 686.063 709.299C688.587 710.736 690.496 712.655 691.788 715.056C693.081 717.458 693.728 720.055 693.728 722.846C693.728 725.638 693.081 728.234 691.788 730.635C690.496 733.035 688.587 734.955 686.063 736.391C683.537 737.828 680.491 738.547 676.919 738.547C673.347 738.547 670.288 737.828 667.744 736.391Z" fill="#FFCC00"/>
</g>
<mask id="mask11_3_73" style="mask-type:luminance" maskUnits="userSpaceOnUse" x="-76" y="-76" width="1286" height="1286">
<path d="M-75.5905 -75.5906H1209.45V1209.45H-75.5905V-75.5906Z" fill="white"/>
</mask>
<g mask="url(#mask11_3_73)">
<path d="M722.082 733.559C724.031 732.698 725.622 731.374 726.854 729.587C728.086 727.802 728.702 725.616 728.702 723.03C728.702 720.732 728.208 718.68 727.223 716.872C726.238 715.067 724.8 713.64 722.914 712.594C721.024 711.547 718.767 711.023 716.14 711.023C712.159 711.023 709.079 712.1 706.904 714.256C704.727 716.411 703.64 719.48 703.64 723.462C703.64 726.992 704.676 729.772 706.75 731.804C708.823 733.836 711.85 734.852 715.832 734.852C718.05 734.852 720.131 734.42 722.082 733.559ZM708.751 752.092C706.371 751.231 704.442 749.978 702.963 748.336C702.635 748.007 702.471 747.598 702.471 747.106C702.471 746.49 702.799 745.955 703.456 745.504C703.866 745.216 704.256 745.074 704.626 745.074C705.242 745.074 705.858 745.402 706.474 746.059C707.458 747.126 708.772 747.987 710.414 748.644C712.055 749.3 714.026 749.63 716.326 749.63C720.347 749.63 723.426 748.664 725.56 746.736C727.695 744.806 728.763 742.015 728.763 738.362V732.574C727.367 734.42 725.54 735.93 723.282 737.099C721.024 738.27 718.396 738.854 715.4 738.854C710.187 738.854 706.164 737.459 703.332 734.667C700.5 731.876 699.084 728.14 699.084 723.462C699.084 720.3 699.71 717.499 700.962 715.056C702.215 712.615 704.092 710.684 706.596 709.268C709.1 707.852 712.178 707.144 715.832 707.144C718.542 707.144 720.983 707.699 723.16 708.807C725.334 709.915 727.202 711.496 728.763 713.548V709.484C728.763 708.828 728.978 708.274 729.408 707.822C729.839 707.371 730.384 707.144 731.042 707.144C731.696 707.144 732.23 707.36 732.642 707.791C733.052 708.222 733.258 708.787 733.258 709.484V738.362C733.258 741.44 732.57 744.108 731.195 746.366C729.819 748.623 727.88 750.358 725.376 751.57C722.872 752.779 719.999 753.386 716.756 753.386C713.8 753.386 711.131 752.955 708.751 752.092Z" fill="#FFCC00"/>
</g>
<mask id="mask12_3_73" style="mask-type:luminance" maskUnits="userSpaceOnUse" x="-76" y="-76" width="1286" height="1286">
<path d="M-75.5906 -75.5906H1209.45V1209.45H-75.5906V-75.5906Z" fill="white"/>
</mask>
<g mask="url(#mask12_3_73)">
<path d="M742.216 737.9C741.825 737.469 741.63 736.864 741.63 736.084V709.608C741.63 708.828 741.814 708.221 742.185 707.79C742.554 707.36 743.108 707.144 743.848 707.144C744.544 707.144 745.088 707.36 745.478 707.79C745.868 708.221 746.064 708.828 746.064 709.608V713.301C748.854 709.608 752.713 707.76 757.638 707.76H759.178C759.958 707.76 760.574 707.936 761.025 708.284C761.477 708.633 761.702 709.114 761.702 709.73C761.702 710.346 761.477 710.818 761.025 711.146C760.574 711.476 759.958 711.638 759.178 711.638H757.454C753.966 711.638 751.205 712.634 749.173 714.625C747.141 716.617 746.125 719.316 746.125 722.722V736.084C746.125 736.822 745.929 737.418 745.54 737.869C745.149 738.32 744.585 738.546 743.848 738.546C743.148 738.546 742.605 738.33 742.216 737.9Z" fill="#FFCC00"/>
</g>
<mask id="mask13_3_73" style="mask-type:luminance" maskUnits="userSpaceOnUse" x="-76" y="-76" width="1286" height="1286">
<path d="M-75.5905 -75.5906H1209.45V1209.45H-75.5905V-75.5906Z" fill="white"/>
</mask>
<g mask="url(#mask13_3_73)">
<path d="M785.039 732.974C787.049 731.763 788.056 730.194 788.056 728.263C788.056 726.335 787.121 724.846 785.253 723.799C783.387 722.753 780.748 722.23 777.343 722.23C774.468 722.23 772.252 722.774 770.692 723.862C769.131 724.95 768.352 726.519 768.352 728.571C768.352 730.583 769.112 732.123 770.631 733.19C772.149 734.258 774.344 734.79 777.219 734.79C780.42 734.79 783.027 734.185 785.039 732.974ZM767.213 735.899C764.935 734.134 763.796 731.691 763.796 728.571C763.796 725.493 764.997 723.051 767.399 721.245C769.799 719.438 773.072 718.535 777.219 718.535C779.64 718.535 781.785 718.865 783.653 719.521C785.52 720.178 786.967 721.059 787.995 722.169V718.227C787.995 715.887 787.225 714.102 785.685 712.87C784.145 711.639 781.899 711.023 778.943 711.023C775.125 711.023 771.821 711.927 769.029 713.733C768.332 714.143 767.757 714.349 767.305 714.349C766.896 714.349 766.484 714.185 766.073 713.855C765.621 713.486 765.397 713.015 765.397 712.439C765.397 711.823 765.664 711.311 766.197 710.901C767.676 709.751 769.553 708.838 771.832 708.161C774.109 707.483 776.439 707.145 778.82 707.145C783.171 707.145 786.548 708.13 788.949 710.099C791.349 712.07 792.551 714.841 792.551 718.413V736.145C792.551 737.746 791.812 738.546 790.335 738.546C789.677 738.546 789.143 738.331 788.733 737.899C788.323 737.469 788.117 736.905 788.117 736.207V733.99C785.571 737.029 781.753 738.546 776.665 738.546C772.641 738.546 769.492 737.665 767.213 735.899Z" fill="#FFCC00"/>
</g>
<mask id="mask14_3_73" style="mask-type:luminance" maskUnits="userSpaceOnUse" x="-76" y="-76" width="1286" height="1286">
<path d="M-75.5905 -75.5906H1209.45V1209.45H-75.5905V-75.5906Z" fill="white"/>
</mask>
<g mask="url(#mask14_3_73)">
<path d="M830.355 707.945C830.766 708.355 830.971 708.951 830.971 709.73V736.083C830.971 736.822 830.775 737.418 830.386 737.869C829.995 738.321 829.432 738.546 828.692 738.546C827.994 738.546 827.45 738.331 827.06 737.899C826.67 737.469 826.476 736.863 826.476 736.083V711.023H808.619V736.083C808.619 736.863 808.424 737.469 808.035 737.899C807.644 738.331 807.102 738.546 806.403 738.546C805.706 738.546 805.151 738.331 804.74 737.899C804.33 737.469 804.124 736.863 804.124 736.083V711.023H801.231C800.41 711.023 799.784 710.859 799.354 710.531C798.923 710.203 798.707 709.751 798.707 709.177C798.707 707.945 799.548 707.329 801.231 707.329H804.124V704.127C804.124 700.474 805.254 697.611 807.511 695.538C809.77 693.466 812.888 692.429 816.871 692.429C819.415 692.429 821.775 692.87 823.951 693.753C826.127 694.635 827.81 695.774 829 697.17C829.37 697.581 829.554 698.031 829.554 698.525C829.554 699.058 829.287 699.571 828.755 700.063C828.343 700.393 827.954 700.555 827.584 700.555C827.008 700.555 826.392 700.227 825.736 699.571C824.668 698.586 823.326 697.795 821.704 697.201C820.082 696.606 818.471 696.307 816.871 696.307C814.243 696.307 812.212 696.965 810.775 698.278C809.338 699.593 808.619 701.459 808.619 703.881V707.329H828.692C829.39 707.329 829.944 707.535 830.355 707.945Z" fill="#FFCC00"/>
</g>
<mask id="mask15_3_73" style="mask-type:luminance" maskUnits="userSpaceOnUse" x="-76" y="-76" width="1286" height="1286">
<path d="M-75.5906 -75.5906H1209.45V1209.45H-75.5906V-75.5906Z" fill="white"/>
</mask>
<g mask="url(#mask15_3_73)">
<path d="M859.54 732.974C861.551 731.763 862.557 730.194 862.557 728.263C862.557 726.335 861.623 724.846 859.755 723.799C857.888 722.753 855.249 722.23 851.844 722.23C848.969 722.23 846.753 722.774 845.193 723.862C843.632 724.95 842.853 726.519 842.853 728.571C842.853 730.583 843.613 732.123 845.132 733.19C846.651 734.258 848.845 734.79 851.72 734.79C854.921 734.79 857.528 734.185 859.54 732.974ZM841.715 735.899C839.436 734.134 838.297 731.691 838.297 728.571C838.297 725.493 839.499 723.051 841.9 721.245C844.3 719.438 847.573 718.535 851.72 718.535C854.141 718.535 856.287 718.865 858.155 719.521C860.021 720.178 861.468 721.059 862.496 722.169V718.227C862.496 715.887 861.727 714.102 860.187 712.87C858.647 711.639 856.4 711.023 853.444 711.023C849.627 711.023 846.323 711.927 843.531 713.733C842.833 714.143 842.259 714.349 841.807 714.349C841.397 714.349 840.985 714.185 840.575 713.855C840.123 713.486 839.899 713.015 839.899 712.439C839.899 711.823 840.165 711.311 840.699 710.901C842.177 709.751 844.055 708.838 846.333 708.161C848.611 707.483 850.94 707.145 853.321 707.145C857.672 707.145 861.049 708.13 863.451 710.099C865.851 712.07 867.052 714.841 867.052 718.413V736.145C867.052 737.746 866.313 738.546 864.836 738.546C864.179 738.546 863.644 738.331 863.235 737.899C862.824 737.469 862.619 736.905 862.619 736.207V733.99C860.072 737.029 856.255 738.546 851.167 738.546C847.143 738.546 843.993 737.665 841.715 735.899Z" fill="#FFCC00"/>
</g>
</g>
<defs>
<clipPath id="clip0_3_73">
<rect width="1133.86" height="1133.86" fill="white"/>
</clipPath>
</defs>
</svg>
